<svg xmlns="http://www.w3.org/2000/svg" viewBox="0 0 64 64">
  <defs>
    <linearGradient id="bg" x1="0" y1="0" x2="1" y2="1">
      <stop offset="0%" stop-color="#2d9b74"/>
      <stop offset="100%" stop-color="#15583f"/>
    </linearGradient>
  </defs>
  <rect width="64" height="64" rx="14" fill="url(#bg)"/>
  <path d="M14 24a8 8 0 0 1 8-8h20a8 8 0 0 1 8 8v2H22a6 6 0 0 0-6 6v8a6 6 0 0 0 6 6h28v2a8 8 0 0 1-8 8H22a8 8 0 0 1-8-8V24Z" fill="#fff"/>
  <rect x="30" y="28" width="22" height="14" rx="5" fill="#d5efe3"/>
  <circle cx="40.5" cy="35" r="2.4" fill="#1f7a5a"/>
</svg>
